<svg width="610" height="475" viewBox="0 0 610 475" fill="none" xmlns="http://www.w3.org/2000/svg">
<g clip-path="url(#clip0_0_1)">
<ellipse cx="305" cy="106.5" rx="261" ry="46.5" fill="#E6E4B9"/>
<ellipse cx="305" cy="372.5" rx="261" ry="42.5" fill="#E6E4B9"/>
<path d="M225.288 278C224.221 278 223.688 277.467 223.688 276.4V258.352C223.688 257.84 223.709 257.435 223.752 257.136C223.837 256.795 224.093 256.496 224.52 256.24L238.088 248.432V245.232L224.712 238.192C224.029 237.808 223.688 237.168 223.688 236.272V207.472C223.688 206.789 223.731 206.299 223.816 206C223.901 205.659 224.2 205.296 224.712 204.912L241.608 193.52C241.949 193.264 242.312 193.072 242.696 192.944C243.08 192.773 243.571 192.688 244.168 192.688H266.76C267.827 192.688 268.36 193.221 268.36 194.288V213.232C268.36 214.171 268.04 214.811 267.4 215.152L250.632 222.512V225.84L267.4 235.44C268.04 235.739 268.36 236.421 268.36 237.488V265.328C268.36 265.669 268.296 266.032 268.168 266.416C268.083 266.757 267.869 267.035 267.528 267.248L247.432 277.232C247.176 277.403 246.856 277.573 246.472 277.744C246.131 277.915 245.789 278 245.448 278H225.288ZM275.288 278C274.221 278 273.688 277.467 273.688 276.4V209.2C273.688 208.133 274.221 207.6 275.288 207.6H295.512C296.579 207.6 297.112 208.133 297.112 209.2V276.4C297.112 277.467 296.579 278 295.512 278H275.288ZM274.968 202.288C274.115 202.288 273.688 201.861 273.688 201.008V192.88C273.688 192.027 274.115 191.6 274.968 191.6H295.96C296.728 191.6 297.112 192.027 297.112 192.88V201.008C297.112 201.861 296.728 202.288 295.96 202.288H274.968ZM304.038 278C302.971 278 302.438 277.467 302.438 276.4V194.288C302.438 193.221 302.971 192.688 304.038 192.688H324.262C325.329 192.688 325.862 193.221 325.862 194.288V276.4C325.862 277.467 325.329 278 324.262 278H304.038ZM347.572 278C346.591 278 345.737 277.637 345.012 276.912L332.212 264.112C331.529 263.429 331.188 262.576 331.188 261.552V224.048C331.188 223.024 331.529 222.171 332.212 221.488L345.012 208.688C345.737 207.963 346.591 207.6 347.572 207.6H367.028C368.009 207.6 368.863 207.963 369.588 208.688L382.388 221.488C383.071 222.171 383.412 223.024 383.412 224.048V261.552C383.412 262.576 383.071 263.429 382.388 264.112L369.588 276.912C368.863 277.637 368.009 278 367.028 278H347.572ZM357.172 256.688H357.3C358.153 256.688 358.815 256.453 359.284 255.984C359.753 255.515 359.988 254.853 359.988 254V231.6C359.988 230.747 359.753 230.085 359.284 229.616C358.815 229.147 358.153 228.912 357.3 228.912H357.108C356.255 228.912 355.615 229.147 355.188 229.616C354.804 230.085 354.612 230.747 354.612 231.6V254C354.612 254.853 354.825 255.515 355.252 255.984C355.721 256.453 356.361 256.688 357.172 256.688Z" fill="#AEBFC7"/>
</g>
<defs>
<clipPath id="clip0_0_1">
<rect width="610" height="475" fill="white"/>
</clipPath>
</defs>
</svg>
